<?xml version="1.0" encoding="UTF-8" standalone="no"?>
<svg
   xmlns:dc="http://purl.org/dc/elements/1.1/"
   xmlns:cc="http://creativecommons.org/ns#"
   xmlns:rdf="http://www.w3.org/1999/02/22-rdf-syntax-ns#"
   xmlns:svg="http://www.w3.org/2000/svg"
   xmlns="http://www.w3.org/2000/svg"
   xmlns:sodipodi="http://sodipodi.sourceforge.net/DTD/sodipodi-0.dtd"
   xmlns:inkscape="http://www.inkscape.org/namespaces/inkscape"
   width="70mm"
   height="88mm"
   version="1.1"
   viewBox="0 0 70 88"
   id="svg18"
   sodipodi:docname="logo.svg"
   inkscape:version="1.0 (1.0+r73+1)">
  <metadata
     id="metadata24">
    <rdf:RDF>
      <cc:Work
         rdf:about="">
        <dc:format>image/svg+xml</dc:format>
        <dc:type
           rdf:resource="http://purl.org/dc/dcmitype/StillImage" />
        <dc:title></dc:title>
      </cc:Work>
    </rdf:RDF>
  </metadata>
  <defs
     id="defs22" />
  <sodipodi:namedview
     inkscape:document-rotation="0"
     pagecolor="#ffffff"
     bordercolor="#666666"
     borderopacity="1"
     objecttolerance="10"
     gridtolerance="10"
     guidetolerance="10"
     inkscape:pageopacity="0"
     inkscape:pageshadow="2"
     inkscape:window-width="1920"
     inkscape:window-height="1032"
     id="namedview20"
     showgrid="false"
     showguides="false"
     inkscape:guide-bbox="true"
     inkscape:zoom="1.6234774"
     inkscape:cx="-72.824245"
     inkscape:cy="174.82918"
     inkscape:window-x="0"
     inkscape:window-y="0"
     inkscape:window-maximized="1"
     inkscape:current-layer="svg18">
    <sodipodi:guide
       position="1.3229167,61.635417"
       orientation="1,0"
       id="guide856" />
    <inkscape:grid
       id="grid921"
       type="xygrid" />
    <sodipodi:guide
       position="68.791668,53.697916"
       orientation="1,0"
       id="guide882" />
  </sodipodi:namedview>
  <rect
     id="rect2"
     style="opacity:0.99;fill:none;stroke:#ffffff;stroke-width:0.978958;stroke-linecap:round;stroke-linejoin:bevel;stroke-miterlimit:4;stroke-dasharray:none"
     ry="34.099998"
     height="68.099998"
     width="68.099998"
     y="0.98951954"
     x="0.84916168"
     inkscape:export-xdpi="241"
     inkscape:export-ydpi="241" />
  <path
     id="path4"
     style="fill:none;stroke:#ffffff;stroke-width:0.978958;stroke-linejoin:round;stroke-miterlimit:4;stroke-dasharray:none"
     d="m 31.410519,35.53952 c 3.619979,-12.5 2.159988,-21.2 0,-25.6000002 -2.159988,6.8900002 -4.069976,14.0000002 0,25.6000002 z"
     inkscape:export-xdpi="241"
     inkscape:export-ydpi="241" />
  <path
     id="path6"
     style="fill:none;stroke:#ffffff;stroke-width:0.978958;stroke-linejoin:round;stroke-miterlimit:4;stroke-dasharray:none"
     d="m 31.410519,61.13952 c 3.619979,-12.5 2.159988,-21.2 0,-25.6 -2.159988,6.89 -4.069976,14 0,25.6 z"
     inkscape:export-xdpi="241"
     inkscape:export-ydpi="241" />
  <path
     id="path8"
     style="fill:none;stroke:#ffffff;stroke-width:0.978958;stroke-linecap:round;stroke-linejoin:round;stroke-miterlimit:4;stroke-dasharray:none"
     d="m 31.410519,36.03952 c 10.199943,-4.53 15.099916,-10.4 16.799904,-14.3 -5.689967,2.38 -11.399934,5.05 -16.799904,14.3 z"
     inkscape:export-xdpi="241"
     inkscape:export-ydpi="241" />
  <path
     id="path10"
     style="fill:none;stroke:#ffffff;stroke-width:0.978958;stroke-linecap:round;stroke-linejoin:round;stroke-miterlimit:4;stroke-dasharray:none"
     d="m 31.410519,35.03952 c 6.089967,9.32 12.699928,13.3 16.799904,14.3 -3.259979,-5.24 -6.789961,-10.4 -16.799904,-14.3 z"
     inkscape:export-xdpi="241"
     inkscape:export-ydpi="241" />
  <path
     id="path900"
     style="font-size:16.7044px;line-height:1.25;font-family:'Liberation Sans';fill:#ffffff;stroke:#ffffff;stroke-width:0;stroke-miterlimit:4;stroke-dasharray:none;stroke-opacity:1;paint-order:markers stroke fill"
     d="M 13.460651,86.82997 9.1608948,80.906545 7.7556347,82.126074 V 86.82997 H 6.2969346 V 74.556286 h 1.4587001 v 6.149908 l 5.1856793,-6.149908 h 1.718381 l -4.582343,5.331082 5.19331,6.942602 z"
     inkscape:export-xdpi="241"
     inkscape:export-ydpi="241" />
  <path
     id="path902"
     style="font-size:16.7044px;line-height:1.25;font-family:'Liberation Sans';fill:#ffffff;stroke:#ffffff;stroke-width:0;stroke-miterlimit:4;stroke-dasharray:none;stroke-opacity:1;paint-order:markers stroke fill"
     d="M 24.374241,86.82997 23.144647,83.241072 H 18.241544 L 17.00432,86.82997 h -1.512171 l 4.391406,-12.273684 h 1.657271 l 4.322666,12.273684 z m -3.681152,-11.019312 -0.0687,0.243906 q -0.19093,0.723006 -0.565164,1.855425 l -1.374704,4.033155 h 4.024826 l -1.382344,-4.050577 q -0.213837,-0.601052 -0.427677,-1.358903 z"
     inkscape:export-xdpi="241"
     inkscape:export-ydpi="241" />
  <path
     id="path904"
     style="font-size:16.7044px;line-height:1.25;font-family:'Liberation Sans';fill:#ffffff;stroke:#ffffff;stroke-width:0;stroke-miterlimit:4;stroke-dasharray:none;stroke-opacity:1;paint-order:markers stroke fill"
     d="M 34.799041,86.82997 32.003816,81.734083 H 28.651084 V 86.82997 H 27.192363 V 74.556286 h 5.063493 q 1.817648,0 2.802852,0.932069 0.992834,0.923357 0.992834,2.578431 0,1.367614 -0.702614,2.299683 -0.694997,0.932067 -1.924591,1.175974 l 3.054895,5.287527 z m -0.21384,-8.745762 q 0,-1.071444 -0.641527,-1.628942 -0.633884,-0.56621 -1.832938,-0.56621 h -3.459652 v 4.529678 h 3.520762 q 1.153214,0 1.779468,-0.609765 0.633887,-0.618474 0.633887,-1.724761 z"
     inkscape:export-xdpi="241"
     inkscape:export-ydpi="241" />
  <path
     id="path906"
     style="font-size:16.7044px;line-height:1.25;font-family:'Liberation Sans';fill:#ffffff;stroke:#ffffff;stroke-width:0;stroke-miterlimit:4;stroke-dasharray:none;stroke-opacity:1;paint-order:markers stroke fill"
     d="M 38.65584,86.82997 V 74.556286 h 1.458711 V 86.82997 Z"
     inkscape:export-xdpi="241"
     inkscape:export-ydpi="241" />
  <path
     id="path908"
     style="font-size:16.7044px;line-height:1.25;font-family:'Liberation Sans';fill:#ffffff;stroke:#ffffff;stroke-width:0;stroke-miterlimit:4;stroke-dasharray:none;stroke-opacity:1;paint-order:markers stroke fill"
     d="m 49.997114,86.82997 -4.299756,-5.923425 -1.405251,1.219529 V 86.82997 H 42.833396 V 74.556286 h 1.458711 v 6.149908 l 5.18568,-6.149908 h 1.718371 l -4.582333,5.331082 5.19332,6.942602 z"
     inkscape:export-xdpi="241"
     inkscape:export-ydpi="241" />
  <path
     id="path910"
     style="font-size:16.7044px;line-height:1.25;font-family:'Liberation Sans';fill:#ffffff;stroke:#ffffff;stroke-width:0;stroke-miterlimit:4;stroke-dasharray:none;stroke-opacity:1;paint-order:markers stroke fill"
     d="m 63.415709,80.636507 q 0,1.925113 -0.649167,3.371126 -0.641527,1.446012 -1.848211,2.221283 -1.206671,0.775273 -2.848672,0.775273 -1.657281,0 -2.863965,-0.766561 -1.199041,-0.766562 -1.832928,-2.212573 -0.633887,-1.454725 -0.633887,-3.388548 0,-2.944291 1.412881,-4.599365 1.412894,-1.663785 3.933169,-1.663785 1.642011,0 2.848692,0.749139 1.206684,0.740428 1.840561,2.160307 0.641527,1.41988 0.641527,3.353704 z m -1.489261,0 q 0,-2.290971 -1.008117,-3.597609 -1.000464,-1.306638 -2.833402,-1.306638 -1.848211,0 -2.856325,1.289216 -1.008114,1.289216 -1.008114,3.615031 0,2.308393 1.015754,3.667297 1.023384,1.350192 2.833415,1.350192 1.863478,0 2.856312,-1.306638 1.000477,-1.315348 1.000477,-3.710851 z"
     inkscape:export-xdpi="241"
     inkscape:export-ydpi="241" />
</svg>
