<svg version="1.1" viewBox="0 0 195 552" xmlns="http://www.w3.org/2000/svg">
    <path d="m97.7 4.18c0.803 64.6-2.72 170 3.1 194 8.14-5.04 29.4 8.49 24.5 11.7-3.84 2.52-46.8-0.986-49 2.45-3.58 5.59 60.6-1.43 55.7 7.07-2.91 5.08-65.7-3.33-61.1 3.03 6.41 8.78 69.1 0.0786 68.3 7.31-0.728 6.08-79.2-2.75-76.1 4.78 2.77 6.71 78.1-0.263 77.7 6.06-0.52 7.63-79.2-5.61-79.2 5.87-0.0677 11.1 73.2-1.73 77.7 1.61 18.1 13.5-77.1 2.88-77.7 9.47-1.27 13 74.1-2.13 76.9 6.99 0 0-49.9 3.2-73.7 9.01-6.05 1.48-1.28 12.2-3.2 18-2.38 7.17-9.73 16.7-8.73 24.2 3.98 29.8-19 65.1-21.3 68.9-45.7 74.2-27.1 107-4.44 131 52.2 56.2 114 31.6 144-4.49 23.5-30.1 33.7-68.4 1.09-113-17.2-23.6-24-34.9-23.4-85.8 0.194-17.4-33.6-39.2-37-4.58-6.32 66.2 6.19 132 14.7 144 8.96 12.2 19.3 2.14 15.8-8.61-4.47-13.7-12.1-17.1-21.9-16.2-15.2 1.42-17.5 8.63-22.1 15.3-14.5 21.4-12.4 59-2.21 54.8 12.8-5.28 7.43-43.3 2.25-54.8-3.29-7.28-7.85-15.2-20.9-15.8-20.5-0.945-28.1 17.9-20.8 26 9.99 11 24.2-25.5 26.1-48.7 10.9-137 9.99-398 14.7-399z" style="fill:none;stroke-linecap:round;stroke-linejoin:round;stroke-width:3.04;stroke:#000"/>
</svg>
