<svg xmlns="http://www.w3.org/2000/svg" version="1.1" id="svg2" width="1900" height="1267"><defs id="defs6"><path id="rect984-2-8-2-7" d="M39.978 384.089h1104.371v1063.64H39.978z"/><path id="rect984" d="M39.978 384.089h1104.371v1063.64H39.978z"/><path id="rect984-2-8" d="M39.978 384.089h1104.371v1063.64H39.978z"/><path id="rect2234" d="M39.978 384.089h1104.371v1063.64H39.978z"/><path id="rect984-2-8-1" d="M39.978 384.089h1104.371v1063.64H39.978z"/><path id="rect2837" d="M39.978 384.089h1104.371v1063.64H39.978z"/><path id="rect984-2-8-1-2" d="M39.978 384.089h1104.371v1063.64H39.978z"/><path id="rect3465" d="M39.978 384.089h1104.371v1063.64H39.978z"/><path id="rect984-7" d="M39.978 384.089h1104.371v1063.64H39.978z"/><path id="rect984-2-3" d="M39.978 384.089h1104.371v1063.64H39.978z"/><path id="rect984-2-8-6" d="M39.978 384.089h1104.371v1063.64H39.978z"/><path id="rect2234-2" d="M39.978 384.089h1104.371v1063.64H39.978z"/><path id="rect984-2-8-6-6" d="M39.978 384.089h1104.371v1063.64H39.978z"/><path id="rect1885" d="M39.978 384.089h1104.371v1063.64H39.978z"/><path id="rect984-75" d="M39.978 384.089h1104.371v1063.64H39.978z"/><path id="rect984-2-5" d="M39.978 384.089h1104.371v1063.64H39.978z"/><path id="rect984-2-8-2" d="M39.978 384.089h1104.371v1063.64H39.978z"/><path id="rect2234-9" d="M39.978 384.089h1104.371v1063.64H39.978z"/><path id="rect984-2-8-1-1" d="M39.978 384.089h1104.371v1063.64H39.978z"/><path id="rect2837-2" d="M39.978 384.089h1104.371v1063.64H39.978z"/><path id="rect984-2-8-1-2-7" d="M39.978 384.089h1104.371v1063.64H39.978z"/><path id="rect3465-0" d="M39.978 384.089h1104.371v1063.64H39.978z"/><path id="rect4150-9" d="M39.978 384.089h1104.371v1063.64H39.978z"/><path id="rect984-2-8-0-2-2" d="M39.978 384.089h1104.371v1063.64H39.978z"/><path id="rect2234-4-6" d="M39.978 384.089h1104.371v1063.64H39.978z"/><path id="rect984-0" d="M39.978 384.089h1104.371v1063.64H39.978z"/><path id="rect984-2-58" d="M39.978 384.089h1104.371v1063.64H39.978z"/><path id="rect984-2-8-0" d="M39.978 384.089h1104.371v1063.64H39.978z"/><path id="rect2234-4" d="M39.978 384.089h1104.371v1063.64H39.978z"/><path id="rect984-2-8-0-2" d="M39.978 384.089h1104.371v1063.64H39.978z"/><path id="rect4150" d="M39.978 384.089h1104.371v1063.64H39.978z"/><path id="rect984-5" d="M39.978 384.089h1104.371v1063.64H39.978z"/><path id="rect984-2-6" d="M39.978 384.089h1104.371v1063.64H39.978z"/><path id="rect984-2-8-9" d="M39.978 384.089h1104.371v1063.64H39.978z"/><path id="rect2234-1" d="M39.978 384.089h1104.371v1063.64H39.978z"/><path id="rect984-2-8-1-27" d="M39.978 384.089h1104.371v1063.64H39.978z"/><path id="rect2837-0" d="M39.978 384.089h1104.371v1063.64H39.978z"/><path id="rect984-2-8-1-2-9" d="M39.978 384.089h1104.371v1063.64H39.978z"/><path id="rect3465-3" d="M39.978 384.089h1104.371v1063.64H39.978z"/><path id="rect984-7-6" d="M39.978 384.089h1104.371v1063.64H39.978z"/><path id="rect984-2-3-6" d="M39.978 384.089h1104.371v1063.64H39.978z"/><path id="rect984-2-8-6-61" d="M39.978 384.089h1104.371v1063.64H39.978z"/><path id="rect2234-2-8" d="M39.978 384.089h1104.371v1063.64H39.978z"/><path id="rect984-2-8-6-6-7" d="M39.978 384.089h1104.371v1063.64H39.978z"/><path id="rect1885-9" d="M39.978 384.089h1104.371v1063.64H39.978z"/><path id="rect984-75-2" d="M39.978 384.089h1104.371v1063.64H39.978z"/><path id="rect984-2-5-2" d="M39.978 384.089h1104.371v1063.64H39.978z"/><path id="rect984-2" d="M39.978 384.089h1104.371v1063.64H39.978z"/><path id="rect2234-9-5" d="M39.978 384.089h1104.371v1063.64H39.978z"/><path id="rect984-2-8-1-1-9" d="M39.978 384.089h1104.371v1063.64H39.978z"/><path id="rect2837-2-2" d="M39.978 384.089h1104.371v1063.64H39.978z"/><path id="rect984-2-8-1-2-7-2" d="M39.978 384.089h1104.371v1063.64H39.978z"/><path id="rect3465-0-8" d="M39.978 384.089h1104.371v1063.64H39.978z"/><path id="rect984-2-8-0-0" d="M39.978 384.089h1104.371v1063.64H39.978z"/><path id="rect984-2-58-2" d="M39.978 384.089h1104.371v1063.64H39.978z"/><path id="rect984-0-4" d="M39.978 384.089h1104.371v1063.64H39.978z"/><path id="rect984-0-9" d="M39.978 384.089h1104.371v1063.64H39.978z"/><path id="rect984-2-58-1" d="M39.978 384.089h1104.371v1063.64H39.978z"/><path id="rect984-2-8-0-4" d="M39.978 384.089h1104.371v1063.64H39.978z"/><path id="rect2234-4-7" d="M39.978 384.089h1104.371v1063.64H39.978z"/><path id="rect984-2-8-0-2-8" d="M39.978 384.089h1104.371v1063.64H39.978z"/><path id="rect4150-4" d="M39.978 384.089h1104.371v1063.64H39.978z"/><path id="rect984-9" d="M39.978 384.089h1104.371v1063.64H39.978z"/><path id="rect984-2-69" d="M39.978 384.089h1104.371v1063.64H39.978z"/><path id="rect984-2-8-4" d="M39.978 384.089h1104.371v1063.64H39.978z"/><path id="rect2234-7" d="M39.978 384.089h1104.371v1063.64H39.978z"/><path id="rect984-2-8-1-7" d="M39.978 384.089h1104.371v1063.64H39.978z"/><path id="rect2837-5" d="M39.978 384.089h1104.371v1063.64H39.978z"/><path id="rect984-2-8-1-2-4" d="M39.978 384.089h1104.371v1063.64H39.978z"/><path id="rect3465-8" d="M39.978 384.089h1104.371v1063.64H39.978z"/><path id="rect984-7-1" d="M39.978 384.089h1104.371v1063.64H39.978z"/><path id="rect984-2-3-8" d="M39.978 384.089h1104.371v1063.64H39.978z"/><path id="rect984-2-8-6-3" d="M39.978 384.089h1104.371v1063.64H39.978z"/><path id="rect2234-2-6" d="M39.978 384.089h1104.371v1063.64H39.978z"/><path id="rect984-2-8-6-6-8" d="M39.978 384.089h1104.371v1063.64H39.978z"/><path id="rect1885-0" d="M39.978 384.089h1104.371v1063.64H39.978z"/><path id="rect984-75-21" d="M39.978 384.089h1104.371v1063.64H39.978z"/><path id="rect984-2-5-1" d="M39.978 384.089h1104.371v1063.64H39.978z"/><path id="rect984-2-8-2-0" d="M39.978 384.089h1104.371v1063.64H39.978z"/><path id="rect2234-9-8" d="M39.978 384.089h1104.371v1063.64H39.978z"/><path id="rect984-2-8-1-1-5" d="M39.978 384.089h1104.371v1063.64H39.978z"/><path id="rect2837-2-0" d="M39.978 384.089h1104.371v1063.64H39.978z"/><path id="rect984-2-8-1-2-7-6" d="M39.978 384.089h1104.371v1063.64H39.978z"/><path id="rect3465-0-4" d="M39.978 384.089h1104.371v1063.64H39.978z"/><path id="rect984-54" d="M39.978 384.089h1104.371v1063.64H39.978z"/><clipPath clipPathUnits="userSpaceOnUse" id="clipPath1014-6"><path id="rect1016-2" opacity=".99" fill="none" stroke="#000" stroke-width=".8" stroke-linecap="round" stroke-linejoin="round" d="M-362.145-20.274h180.249v304.081h-180.249z"/></clipPath><clipPath clipPathUnits="userSpaceOnUse" id="clipPath1020-5"><path id="rect1022-8" opacity=".99" fill="none" stroke="#000" stroke-width=".8" stroke-linecap="round" stroke-linejoin="round" d="M452.646-52.623h267.619v404.354H452.646z"/></clipPath><clipPath clipPathUnits="userSpaceOnUse" id="clipPath1036-6"><path id="rect1038-28" opacity=".99" fill="none" stroke="#000" stroke-width=".8" stroke-linecap="round" stroke-linejoin="round" d="M66.284 24.996h261.298V374.93H66.284z"/></clipPath><clipPath clipPathUnits="userSpaceOnUse" id="clipPath1036-1"><path id="rect1038-2" opacity=".99" fill="none" stroke="#000" stroke-width=".8" stroke-linecap="round" stroke-linejoin="round" d="M66.284 24.996h261.298V374.93H66.284z"/></clipPath><clipPath clipPathUnits="userSpaceOnUse" id="clipPath1020-3"><path id="rect1022-6" opacity=".99" fill="none" stroke="#000" stroke-width=".8" stroke-linecap="round" stroke-linejoin="round" d="M452.646-52.623h267.619v404.354H452.646z"/></clipPath><clipPath clipPathUnits="userSpaceOnUse" id="clipPath1014-9"><path id="rect1016-7" opacity=".99" fill="none" stroke="#000" stroke-width=".8" stroke-linecap="round" stroke-linejoin="round" d="M-362.145-20.274h180.249v304.081h-180.249z"/></clipPath><clipPath clipPathUnits="userSpaceOnUse" id="clipPath1036"><path id="rect1038" opacity=".99" fill="none" stroke="#000" stroke-width=".8" stroke-linecap="round" stroke-linejoin="round" d="M66.284 24.996h261.298V374.93H66.284z"/></clipPath><clipPath clipPathUnits="userSpaceOnUse" id="clipPath1020"><path id="rect1022" opacity=".99" fill="none" stroke="#000" stroke-width=".8" stroke-linecap="round" stroke-linejoin="round" d="M452.646-52.623h267.619v404.354H452.646z"/></clipPath><clipPath clipPathUnits="userSpaceOnUse" id="clipPath1014"><path id="rect1016" opacity=".99" fill="none" stroke="#000" stroke-width=".8" stroke-linecap="round" stroke-linejoin="round" d="M-362.145-20.274h180.249v304.081h-180.249z"/></clipPath></defs><g id="layer4" display="inline"><g id="g1552" transform="translate(117.225 1331.91)" stroke-width="2" stroke-miterlimit="4" stroke-dasharray="none" fill="none" stroke="#b0b0b0" stroke-linecap="round" stroke-opacity="1"><g id="g1503" transform="translate(-226.102 126.678)" display="inline"><path d="M879.102-1013.471c12.443-4.534 25.235-8.03 39.493-2.395" id="path1138-7-5-0-6-2-1-9-1-4-5-6-3-2-3-5-3-4-0" display="inline" stroke-width="2" stroke-linejoin="miter"/><path d="M971.045-1019.36c-7.929-1.264-16.097-.954-24.696 2.79" id="path1138-7-5-0-6-2-1-9-1-8-4-61-2-7-6-7-9-6-8-2" display="inline" stroke-width="2" stroke-linejoin="miter"/><path d="M906.508-926.81c.49.982 2.616 1.267 3.722.161 6.037-6.034 10.943-5.943 15.96-3.58 5.17-2.338 10.082-2.405 15.725 3.658" id="path1873-0-7-3-15-5-3-1-4-4-0-7-3" display="inline" stroke-width="2" stroke-linejoin="round"/><path d="M914.892-920.47c7.154 4.815 14.695 5.07 22.685.055" id="path1911-0-9-0-98-8-4-8-5-6-5-0-7" display="inline" stroke-width="2" stroke-linejoin="round"/><path d="M912.585-925.285c11.123-1.244 18.473 1.021 27.182.333" id="path1913-4-2-7-4-6-7-7-2-9-0-8-5" display="inline" stroke-width="2" stroke-linejoin="round"/><path d="M933.35-991.46c-1.094 15.241 4.961 28.151 7.516 42.203-2.92 1.802-6.334 2.782-9.548 2.908-3.213.122-5.836-1.648-10.003-2.374-5.61-.3-5.05-1.87-3.246-3.865" id="path1756-8-8-2-2-9-5-2-2-6-9" display="inline" stroke-width="2" stroke-linejoin="round"/><g transform="rotate(-172.79 262.733 -378.09) scale(.53005)" id="g1156-4-5-7-5-1-0-0-4-2-4-2-9-2-2" display="inline" stroke-width="3.773" stroke-linejoin="miter"><path d="M-668.344 602.509c13.792-15.905 26.367-18.906 38.363-15.764" id="path1138-78-4-5-5-0-3-3-1-0-7-4-4-4-2"/><path d="M-658.014 592.837l-6.644-7.299" id="path1140-4-7-3-4-6-0-5-1-2-4-7-3-7-8"/><path d="M-648.37 586.648l-3.656-9.059" id="path1142-5-4-5-7-1-9-5-9-3-4-7-5-9-9"/><path d="M-636.012 584.88l.217-10.608" id="path1144-0-4-6-6-5-2-8-1-7-3-5-1-3-7"/></g><g transform="rotate(177.322 297.59 -319.39) scale(.53005)" id="g1156-4-5-7-0-3-0-5-7-3-5-0-4-7-9-3" display="inline" stroke-width="3.773" stroke-linejoin="miter"><path d="M-668.344 602.509c24.77-28.566 45.615-15.506 66.228 0" id="path1138-78-4-5-9-7-9-40-1-8-9-7-8-4-2-6"/><path d="M-658.014 592.837l-6.644-7.299" id="path1140-4-7-3-3-4-1-59-7-7-2-8-1-3-8-1"/><path d="M-648.37 586.648l-3.656-9.059" id="path1142-5-4-5-6-5-7-4-0-4-2-6-2-1-3-2"/><path d="M-636.012 584.88l.217-10.608" id="path1144-0-4-6-0-2-7-6-6-9-8-8-8-4-0-9"/><path d="M-624.35 588.34l4.112-9.644" id="path1146-3-3-2-6-5-1-9-0-3-9-8-9-6-1-3"/><path d="M-616.065 592.908l6.468-6.313" id="path1148-6-0-9-2-4-1-2-4-1-7-4-3-9-7-1"/></g></g><path d="M384.472-477.84c-21.057-11.14-47.291-15.323-47.321-37.864-.137-102 38.098-184.278 49.955-205.305 7.72-13.69 87.718-49.922 136.334-53.704 3.347 34.578 28.125 59.356 43.513 69.591-9.23-15.507-43.747-63.748-23.669-78.71 26.154-19.488 24.809-7.902 22.246-34.082-3.836-39.18 12.65-39.547 8.884-27.677m56.131 123.643c9.596-2.7-5.356-45.735-10.885-40.1-12.496 12.739 8.278 57.183 75.179 37.118 7.813-2.343 11.874-14.276 15.62-18.753 0 0 55.11 18.341 55.162 21.38.051 3.038 105.524 163.736 105.524 163.736-14.11 16.675-33.662 18.869-50.499 28.288-8.81 7.39-7.66 31.897-28.042 19.403-5.577-3.42-24.07-28.154-47.102-44.067-4.934-3.41-12.252-57.376-7.415-56.933 8.14.745 12.348 97.306 5.463 143.194l65.38-33.076c11.996-15.156 26.17-18.866 40.204-23.306 9.63-8.251 14.477-26.116 30.155-22.216 9.054 8.176 15.493 18.747 20.49 30.638 12.918 35.185 4.825 49.158-15.173 56.327l-162.581 58.286c-17.678 2.586-51.973 11.722-74.319 26.18-68.39 14.744-112.467-11.793-80.594-42.501l34.974-29.76c1.4-13.353 11.56-13.885 29.073-10.175l65.084 8.13 41.547-15.47 6.146 6.274c-20.46 16.074 9.548 23.118 14.318 20.658 13.076-6.742-.839-25.134-7.682-20.55-8.04 15.48 21.281 26.578 19.368 39.715m-79.68 53.622c1.933 33.165 191.735 70.193 292.712 87.896 17.637 2.287 25.831 10.869 29.083-8.343l68.771-374.792c2.362-17.906 10.38-46.187 38.16-51.033l241.459-73.107c12.682-3.438 12.58 6.859 8.695 23.348l-69.484 294.94c-5.424 22.646.017 19.472-18.625 29.48l-225.227 120.92c-21.148 10.962-20.832 16.931-42.486 12.852-56.388-6.22-322.108-46.048-323.057-62.161-.832-14.12 177.38-70.117 275.286-104.076 11.384-3.948 30.56.311 44.897 2.283 23.721 3.047 22.335 2.718.823 10.233-87.748 29.968-87.086 21.344-247.376 84.31-28.631 11.247 201.613 40.59 246.67 50.706 21.374 2.968 21.177 3.907 18.563 28.324-11.34 61.086 225.25-127.043 294.866-135.062 46.264-1.638 65.167 19.78 103.236 11.759" id="path841-3-7-4-1-8-2-3-9-6" display="inline" stroke-linejoin="round"/><path d="M423.625-393.83c9.697 62.877 64.741 40.427 78.924 11.334 6.28-12.884 22.495-50.294 56.655-144.053 20.406-2.005 27.431-7.19 36.652-14.312 8.847-6.832 13.244-13.33 15.18-22.396 4.523-21.178-5.471-49.041-11.365-75.365l23.48 90.05c8.747 2.231 69.06-4.458 69.06-4.458l19.953-114.044c-51.474-7.392-95.131-.636-110.493 10.586.802 10.64-6.66 8.828-13.452 8.023-16.805 4.22-7.133 6.44-1.72 8.983 10.802 3.469 13.727 9.3 8.542 17.563 9.432 6.881 8.468 15.2 6.379 23.677-20.296 18.592 3.828 19.25 7.738 28.07-9.218 19.431-20.507 37.32-51.637 40.434-18.736 1.874-39.166-57.882-31.908-81.852 6.34-20.933 50.381-46.518 58.38-46.495l16.753.049-19.427-3.415c-12.272.506-50.844 20.223-61.092 50.47-17.335 51.164-40.527 124.492-62.21 139.268-29.943 20.408-40.847 79.718-35.662 65.517 32.942-90.23-153.388-92.824-31.698-47.891" id="path841-68-4-3-9-7-2-9-6-0-2-3-6-7" display="inline" stroke-linejoin="round"/><path d="M216.43-351.737c55.333 0-123.63 78.588 166.001 0 19.203-5.608 24.364 1.433 24.363-19.58l16.83-22.514" id="path841-68-44-90-6-7-9-3-2-6-8-2-5" display="inline" stroke-linejoin="round"/><path d="M574.414-845.591c-2.132 23.562-46.329-36.265-23.484-60.32 20.647-13.707 22.775 20.321 30.72 39.356 10.898-7.568 12.842-35.713 22.152-54.427l-32.391-10.376c-7.754 8.696-17.147 15.324-24.722 20.107-15.357 9.695-6.031 51.186 14.293 73.282-3.932-2.848-11.088-7.817-14.897-13.4-16.395-24.032-20.91-55.204-17.364-98.931 4.348-53.65 67.81-101.76 71.093-83.257 3.82 21.528-82.702 27.23-53.225-26.268 9.548-17.329 28.27-20.522 41.23-16.763 29.42 8.533 21.565 44.266 8.879 37.356-20.96-11.418 90.039-36.474 118.043 31.693-23.088-12.105-46.68-3.474-70.382 9.755 4.404 30.45-12.805 54.256-31.104 77.727 51.827.606 109.969-9.08 148.359 13.42 11.88-37.85 7.52-72.287-43.09-97.004 30.781 26.9 37.931 57.125 26.597 89.95 1.445 14.616 8.117 29.801-6.303 42.685 9.443 31.925-1.167 52.723-14.327 72.605l-23.195 35.04c-16.077 24.288-104.859-25.794-109.382-55.477l-3.86-25.326c-9.806 32.923 2.747 143.113 42.491 122.216" id="path841-3-0-6-2-6-1-4-0-5-3" display="inline" stroke-linejoin="round"/></g></g></svg>