<?xml version="1.0" encoding="UTF-8" standalone="no"?>
<svg
   xmlns:dc="http://purl.org/dc/elements/1.1/"
   xmlns:cc="http://creativecommons.org/ns#"
   xmlns:rdf="http://www.w3.org/1999/02/22-rdf-syntax-ns#"
   xmlns:svg="http://www.w3.org/2000/svg"
   xmlns="http://www.w3.org/2000/svg"
   xmlns:sodipodi="http://sodipodi.sourceforge.net/DTD/sodipodi-0.dtd"
   xmlns:inkscape="http://www.inkscape.org/namespaces/inkscape"
   width="210mm"
   height="297mm"
   viewBox="0 0 210 297"
   version="1.1"
   id="svg8"
   inkscape:version="1.0.2 (1.0.2+r75+1)"
   sodipodi:docname="tree.svg">
  <defs
     id="defs2" />
  <sodipodi:namedview
     id="base"
     pagecolor="#ffffff"
     bordercolor="#666666"
     borderopacity="1.0"
     inkscape:pageopacity="0.0"
     inkscape:pageshadow="2"
     inkscape:zoom="2"
     inkscape:cx="420.25048"
     inkscape:cy="411.43085"
     inkscape:document-units="mm"
     inkscape:current-layer="layer1"
     inkscape:document-rotation="0"
     showgrid="false"
     showguides="true"
     inkscape:guide-bbox="true"
     inkscape:window-width="1920"
     inkscape:window-height="1032"
     inkscape:window-x="0"
     inkscape:window-y="0"
     inkscape:window-maximized="1">
    <sodipodi:guide
       position="103.0653,152.57363"
       orientation="0,-1"
       id="guide889" />
  </sodipodi:namedview>
  <metadata
     id="metadata5">
    <rdf:RDF>
      <cc:Work
         rdf:about="">
        <dc:format>image/svg+xml</dc:format>
        <dc:type
           rdf:resource="http://purl.org/dc/dcmitype/StillImage" />
        <dc:title></dc:title>
      </cc:Work>
    </rdf:RDF>
  </metadata>
  <g
     inkscape:label="Vrstva 1"
     inkscape:groupmode="layer"
     id="layer1">
    <path
       style="fill:none;stroke:#1c0000;stroke-width:0.264583;stroke-linecap:butt;stroke-linejoin:miter;stroke-miterlimit:4;stroke-dasharray:none;stroke-opacity:1"
       d="m 90.193164,135.59625 -4.03829,-2.99365 0.104253,-17.54912 c -0.34181,-0.96025 -1.14033,-1.46394 -3.34501,-0.56197 l -5.84013,2.53448 c 5.17422,-0.55265 4.123,-0.55776 17.93297,-2.1023 -5.75069,-3.30962 -11.83825,-7.1914 -15.57391,-5.64678 3.28503,2.38276 7.25662,3.05443 13.22278,-1.24486 -2.63075,-0.64601 -5.00942,-2.17782 -7.19772,-4.37857 l -6.39404,2.41612 c -0.50693,0.72014 9.94189,1.26672 14.07292,-3.47906 -3.91912,0.4759 -6.06702,-0.0737 -7.65144,-1.35594 -2.78659,-2.255184 -5.14422,-2.395006 -4.85184,-1.635097 -0.0443,1.861967 2.55318,2.531357 11.06147,0.532467 -0.13027,-0.961824 -1.77736,-1.211416 -3.22692,-1.553766 0.97604,-0.27277 1.42694,-0.96185 3.37467,-0.4643 -1.68926,-1.14828 -3.95999,-0.85602 -6.23897,-0.54329 -1.99481,-0.13989 -4.48756,0.62029 -5.27144,-1.708443 1.65443,0.890989 3.56761,0.485115 5.37577,0.605581 1.65293,-0.435002 3.28962,-1.199087 5.01913,-0.08266 -1.4131,-1.243834 -2.6455,-2.360016 -5.00229,-2.134594 -1.60595,-0.0073 -3.13532,0.657319 -4.71861,-0.823406 1.58136,0.194774 3.17884,0.180857 4.81422,-0.323997 1.35117,-0.544258 2.89973,-0.76485 3.497,-2.54531 -0.42197,1.000163 -1.80809,1.129683 -3.54026,0.946692 -1.36823,-0.150752 -1.69345,-1.334055 -4.30604,-0.252931 -1.18364,-1.07863 0.95862,-1.765496 4.37463,-2.302321 1.05411,-0.02346 1.65359,-0.651168 3.09916,-2.259047 -1.08177,1.166604 -2.20076,1.594 -3.37363,0.95088 l -2.98738,-1.318276 c 0.54853,-0.855108 1.75083,-0.749505 3.30292,-0.727795 1.68761,0.474714 2.86729,0.408528 2.37205,-0.309167 -0.73033,-1.058416 -1.96191,-1.82783 -2.35372,-3.976975 l -0.739983,51.036935 c -4.644225,-2.47486 -7.624735,-1.22812 -12.43005,-0.29481 l 0.214144,-26.17351 c -0.483849,-1.35923 -1.614156,-2.07222 -4.734897,-0.79547 l -8.266738,3.58757 c 7.324139,-0.78228 5.836127,-0.78951 25.384224,-2.97581 -8.140139,-4.68478 -16.757108,-10.179473 -22.044951,-7.993059 4.649973,3.372819 10.271785,4.323569 18.716909,-1.762106 -3.723836,-0.914431 -7.090849,-3.082718 -10.188401,-6.197879 l -9.050806,3.420022 c -0.717566,1.019367 14.072804,1.793052 19.920295,-4.924621 -5.547529,0.673642 -8.587903,-0.10426 -10.830651,-1.919339 -3.944444,-3.19222 -7.281685,-3.390139 -6.867815,-2.314486 -0.06273,2.635621 3.614039,3.583142 15.657578,0.753715 -0.184399,-1.361471 -2.515862,-1.714774 -4.567727,-2.199364 1.381591,-0.386108 2.019852,-1.361501 4.776869,-0.657226 -2.391164,-1.625393 -5.605384,-1.211692 -8.831295,-0.769027 -2.823666,-0.19801 -6.352168,0.87803 -7.461761,-2.418311 2.34186,1.261201 5.049979,0.686685 7.60945,0.857204 2.339727,-0.615747 4.656461,-1.697314 7.104587,-0.117009 -2.000247,-1.760654 -3.744718,-3.340615 -7.08076,-3.02153 -2.273232,-0.01036 -4.43806,0.930438 -6.679213,-1.165535 2.238423,0.275703 4.499654,0.256004 6.814536,-0.458619 1.9126,-0.770402 4.104609,-1.08265 4.950042,-3.602903 -0.59731,1.415737 -2.559361,1.599074 -5.011272,1.340049 -1.936738,-0.21339 -2.397076,-1.888362 -6.095225,-0.358025 -1.67544,-1.526807 1.356929,-2.49907 6.192321,-3.258948 1.492087,-0.03321 2.340672,-0.921732 4.386888,-3.197695 -1.531267,1.651334 -3.115196,2.256316 -4.775394,1.345977 l -4.228654,-1.866027 c 0.776437,-1.210411 2.478297,-1.060929 4.675296,-1.030199 2.388824,0.671961 4.058655,0.578274 3.357655,-0.437627 -1.033796,-1.498193 -2.777092,-2.587304 -3.331704,-5.629432 l -1.11402,73.57573 c -5.778808,-2.32427 -5.385018,0.59644 -11.24213,-0.23016 L 58.859892,72.636857 c -0.447876,2.456671 -1.855676,3.336183 -2.690518,4.54605 -0.566093,0.820391 0.78238,0.896048 2.711476,0.353406 1.774187,-0.02482 3.148525,-0.145531 3.775537,0.831937 l -3.414852,1.506911 c -1.340693,0.735145 -2.619796,0.246592 -3.856371,-1.086943 1.652423,1.837954 2.337697,2.555479 3.542633,2.582299 3.904823,0.61364 6.353614,1.398791 5.000612,2.631765 -2.986442,-1.235824 -3.358188,0.1168 -4.922202,0.289124 -1.980042,0.209175 -3.564497,0.06112 -4.046855,-1.082157 0.68273,2.03523 2.452888,2.287387 3.997409,2.909525 1.869384,0.577094 3.695442,0.593002 5.503082,0.370358 -1.809844,1.692605 -3.558053,0.932829 -5.393802,0.941229 -2.694022,-0.257678 -4.102771,1.018221 -5.718071,2.440038 1.976985,-1.276177 3.847865,-0.402757 5.737313,0.09449 2.066901,-0.137703 4.253844,0.326248 6.145014,-0.692235 -0.896052,2.661961 -3.745495,1.793005 -6.025748,1.952908 -2.605086,-0.357475 -5.200731,-0.691559 -7.131717,0.621028 2.226431,-0.568738 2.741859,0.218941 3.857564,0.530743 -1.656985,0.391331 -3.539759,0.676641 -3.68867,1.776098 9.725764,2.284904 12.694944,1.519734 12.644284,-0.608663 0.33422,-0.868644 -2.36077,-0.708815 -5.546107,1.869064 -1.811133,1.465763 -4.266388,2.093957 -8.746298,1.549963 4.722144,5.424855 16.666114,4.800065 16.086643,3.976875 l -7.308982,-2.761841 c -2.501429,2.515651 -5.220462,4.266651 -8.227648,5.005101 6.819864,4.91449 11.359761,4.14671 15.114849,1.42299 -4.2702,-1.76564 -11.228838,2.67159 -17.802411,6.45479 15.786075,1.76555 14.58443,1.77139 20.499042,2.40312 l -6.675808,-2.89714 c -2.520156,-1.03104 -3.432936,-0.45527 -3.823668,0.64238 l 0.462472,20.51918 -4.61614,3.42202"
       id="path847"
       sodipodi:nodetypes="cccccccccccscccccccccccccccccccsccccccccccccscccccccccccccccccccsccccscccccccccccccccccccsccccccccccc" />
    <path
       style="fill:none;stroke:#1c0000;stroke-width:0.264583;stroke-linecap:butt;stroke-linejoin:miter;stroke-miterlimit:4;stroke-dasharray:none;stroke-opacity:1"
       d="m 161.29546,134.9916 -4.03829,-2.99365 0.26444,-20.75643 c -0.34181,-0.96025 -1.14033,-1.46394 -3.34501,-0.56197 l -5.84013,2.53448 c 5.17422,-0.55265 4.123,-0.55776 17.93297,-2.1023 -5.75069,-3.30962 -11.83825,-7.1914 -15.57391,-5.64678 3.28503,2.38276 7.25662,3.05443 13.22278,-1.24486 -2.63075,-0.64601 -5.00942,-2.17782 -7.19772,-4.37857 l -6.39404,2.41612 c -0.50693,0.72014 9.94189,1.26672 14.07292,-3.47906 -3.91912,0.4759 -6.06702,-0.0737 -7.65144,-1.35594 -2.78659,-2.25519 -5.14422,-2.39501 -4.85184,-1.6351 -0.0443,1.86197 2.55318,2.53136 11.06147,0.53247 -0.13027,-0.96183 -1.77736,-1.21142 -3.22692,-1.55377 0.97604,-0.27277 1.42694,-0.96185 3.37467,-0.4643 -1.68926,-1.14828 -3.95999,-0.85602 -6.23897,-0.54329 -1.99481,-0.13989 -4.48756,0.62029 -5.27144,-1.70844 1.65443,0.89099 3.56761,0.48511 5.37577,0.60558 1.65293,-0.435 3.28962,-1.19909 5.01913,-0.0827 -1.4131,-1.24383 -2.6455,-2.36002 -5.00229,-2.13459 -1.60595,-0.007 -3.13532,0.65731 -4.71861,-0.82341 1.58136,0.19477 3.17884,0.18086 4.81422,-0.324 1.35117,-0.54426 2.89973,-0.76485 3.497,-2.54531 -0.42197,1.00017 -1.80809,1.12969 -3.54026,0.94669 -1.36823,-0.15075 -1.69345,-1.33405 -4.30604,-0.25293 -1.18364,-1.07863 0.95862,-1.76549 4.37463,-2.30232 1.05411,-0.0235 1.65359,-0.65117 3.09916,-2.25904 -1.08177,1.1666 -2.20076,1.594 -3.37363,0.95088 l -2.98738,-1.31828 c 0.54853,-0.85511 1.75083,-0.74951 3.30292,-0.7278 1.68761,0.47472 2.86729,0.40853 2.37205,-0.30916 -0.73033,-1.058419 -1.96191,-1.827833 -2.35372,-3.976978 l -0.90017,54.244288 c -4.64422,-2.47486 -7.62473,-1.22812 -12.43005,-0.29481 l 0.37433,-29.38086 c -0.48385,-1.35923 -1.61416,-2.07222 -4.7349,-0.79547 l -8.26674,3.58757 c 7.32414,-0.78228 5.83613,-0.78951 25.38423,-2.97581 -8.14014,-4.68478 -16.75711,-10.17948 -22.04495,-7.99306 4.64997,3.37282 10.27178,4.32357 18.7169,-1.76211 -3.72383,-0.91443 -7.09084,-3.08272 -10.1884,-6.19788 l -9.0508,3.42003 c -0.71757,1.01936 14.0728,1.79305 19.92029,-4.92463 -5.54753,0.67365 -8.5879,-0.10426 -10.83065,-1.91933 -3.94444,-3.192225 -7.28168,-3.390144 -6.86781,-2.314491 -0.0627,2.635621 3.61404,3.583141 15.65757,0.753715 -0.18439,-1.361471 -2.51586,-1.714774 -4.56772,-2.199364 1.38159,-0.386108 2.01985,-1.361501 4.77687,-0.657226 -2.39117,-1.625393 -5.60539,-1.211692 -8.8313,-0.769027 -2.82366,-0.19801 -6.35217,0.87803 -7.46176,-2.418311 2.34186,1.261201 5.04998,0.686685 7.60945,0.857204 2.33973,-0.615747 4.65646,-1.697314 7.10459,-0.117009 -2.00025,-1.760654 -3.74472,-3.340615 -7.08076,-3.02153 -2.27323,-0.01036 -4.43806,0.930438 -6.67922,-1.165535 2.23843,0.275703 4.49966,0.256004 6.81454,-0.458619 1.9126,-0.770402 4.10461,-1.08265 4.95004,-3.602903 -0.59731,1.415737 -2.55936,1.599074 -5.01127,1.340049 -1.93674,-0.21339 -2.39708,-1.888362 -6.09522,-0.358025 -1.67544,-1.526807 1.35692,-2.49907 6.19232,-3.258948 1.49208,-0.03321 2.34067,-0.921732 4.38688,-3.197695 -1.53126,1.651334 -3.11519,2.256316 -4.77539,1.345977 l -4.22865,-1.866027 c 0.77643,-1.210411 2.47829,-1.060929 4.67529,-1.030199 2.38883,0.671961 4.05866,0.578274 3.35766,-0.437627 -1.0338,-1.498193 -2.77709,-2.587304 -3.33171,-5.629432 l -1.2742,76.783083 c -5.77881,-2.32427 -5.38502,0.59644 -11.24213,-0.23016 l -1.07273,-62.027816 c -0.44788,2.456671 -1.85568,3.336183 -2.69052,4.54605 -0.5661,0.820391 0.78238,0.896048 2.71147,0.353406 1.77419,-0.02482 3.14853,-0.145531 3.77554,0.831937 l -3.41485,1.506911 c -1.34069,0.735145 -2.6198,0.246592 -3.85637,-1.086943 1.65242,1.837954 2.33769,2.555479 3.54263,2.582299 3.90482,0.61364 6.35361,1.398791 5.00061,2.631765 -2.98644,-1.235824 -3.35819,0.1168 -4.9222,0.289124 -1.98004,0.209175 -3.5645,0.06112 -4.04685,-1.082157 0.68273,2.035234 2.45288,2.287384 3.9974,2.909524 1.86939,0.5771 3.69545,0.593 5.50309,0.37036 -1.80985,1.6926 -3.55806,0.93283 -5.39381,0.94123 -2.69402,-0.25768 -4.10277,1.01822 -5.71807,2.44004 1.97699,-1.27618 3.84787,-0.40276 5.73732,0.0945 2.0669,-0.13771 4.25384,0.32624 6.14501,-0.69224 -0.89605,2.66196 -3.74549,1.79301 -6.02575,1.95291 -2.60508,-0.35748 -5.20073,-0.69156 -7.13171,0.62103 2.22643,-0.56874 2.74185,0.21894 3.85756,0.53074 -1.65699,0.39133 -3.53976,0.67664 -3.68867,1.7761 9.72576,2.2849 12.69494,1.51973 12.64428,-0.60866 0.33422,-0.86865 -2.36077,-0.70882 -5.5461,1.86906 -1.81114,1.46576 -4.26639,2.09396 -8.7463,1.54996 4.72214,5.42486 16.66611,4.80007 16.08664,3.97688 l -7.30898,-2.76184 c -2.50143,2.51565 -5.22046,4.26665 -8.22765,5.0051 6.81987,4.91449 11.35976,4.14671 15.11485,1.42299 -4.2702,-1.76564 -11.22884,2.67159 -17.80241,6.45479 15.78607,1.76555 14.58443,1.77139 20.49904,2.40312 l -6.67581,-2.89714 c -2.52015,-1.03104 -3.43293,-0.45527 -3.82366,0.64238 l 0.30228,23.72652 -4.61614,3.42202"
       id="path847-7"
       sodipodi:nodetypes="cccccccccccscccccccccccccccccccsccccccccccccscccccccccccccccccccsccccscccccccccccccccccccsccccccccccc" />
  </g>
</svg>
